<?xml version="1.0" encoding="UTF-8" standalone="no"?>
<!-- Created with Inkscape (http://www.inkscape.org/) -->

<svg
   xmlns:dc="http://purl.org/dc/elements/1.1/"
   xmlns:cc="http://creativecommons.org/ns#"
   xmlns:rdf="http://www.w3.org/1999/02/22-rdf-syntax-ns#"
   xmlns:svg="http://www.w3.org/2000/svg"
   xmlns="http://www.w3.org/2000/svg"
   xmlns:sodipodi="http://sodipodi.sourceforge.net/DTD/sodipodi-0.dtd"
   xmlns:inkscape="http://www.inkscape.org/namespaces/inkscape"
   height="343.43619"
   cursor="default"
   id="svg1476"
   width="697.35077"
   version="1.0"
   sodipodi:docname="Can-vote-stub0419.svg"
   inkscape:export-filename="/media/psf/Dropbox/CES/ces_vote_app/www/vote-icon.png"
   inkscape:export-xdpi="96"
   inkscape:export-ydpi="96"
   inkscape:version="0.92.1 r15371">
  <metadata
     id="metadata3807">
    <rdf:RDF>
      <cc:Work
         rdf:about="">
        <dc:format>image/svg+xml</dc:format>
        <dc:type
           rdf:resource="http://purl.org/dc/dcmitype/StillImage" />
      </cc:Work>
    </rdf:RDF>
  </metadata>
  <sodipodi:namedview
     pagecolor="#ffffff"
     bordercolor="#666666"
     borderopacity="1"
     objecttolerance="10"
     gridtolerance="10"
     guidetolerance="10"
     inkscape:pageopacity="0"
     inkscape:pageshadow="2"
     inkscape:window-width="1225"
     inkscape:window-height="849"
     id="namedview3805"
     showgrid="false"
     inkscape:snap-global="true"
     inkscape:zoom="0.98"
     inkscape:cx="115.45252"
     inkscape:cy="165.43508"
     inkscape:window-x="0"
     inkscape:window-y="27"
     inkscape:window-maximized="0"
     inkscape:current-layer="svg1476" />
  <defs
     id="defs3" />
  <g
     id="layer1"
     transform="translate(248.61572,171.10287)">
    <path
       d="m -108.89972,171.85661 c -0.58989,-0.25033 -1.53098,-0.60228 -2.09132,-0.78209 -0.9893,-0.31741 -0.98716,-0.36144 0.0737,-1.5195 1.27293,-1.38962 4.64691,-15.34748 6.65548,-26.65853 0.75946,-4.27671 0.8899,-8.98242 1.16291,-10.45715 0.27301,-1.47472 0.65435,-4.12923 0.84751,-5.8989 0.19312,-1.76967 0.66565,-4.6655 1.05004,-6.43517 0.3844,-1.76967 0.86295,-6.26295 1.06346,-9.98506 l 0.364551,-6.76749 -1.589531,-0.55411 c -1.16593,-0.40644 -2.50123,-0.35014 -5.0104,0.21125 -8.09802,1.81181 -12.74035,2.32979 -19.77693,2.20668 -6.59353,-0.11535 -7.43852,-0.0203 -9.46881,1.0654 -2.383,1.27426 -6.47571,2.80928 -7.52448,2.82212 -0.35045,0.004 -1.42984,-0.71615 -2.3986,-1.60099 -2.576,-2.35281 -4.65295,-2.06909 -8.10638,1.10736 -0.52426,0.48222 -1.8795,1.1543 -3.01166,1.49349 -2.14302,0.64206 -12.74437,0.85911 -14.22424,0.29123 -0.86977,-0.33375 -1.21501,-2.89208 -0.39029,-2.89208 1.1512,0 3.29588,-2.72089 3.29588,-4.18139 0,-2.65888 -1.56445,-3.533897 -5.58235,-3.12225 -1.90041,0.1947 -4.36004,0.73201 -5.46576,1.19402 -2.35527,0.9841 -5.28687,0.77255 -8.88112,-0.64087 -2.46901,-0.970927 -2.54699,-0.968277 -6.16704,0.21001 -5.96427,1.94133 -12.51473,1.37608 -12.51473,-1.079917 0,-0.55719 0.36026,-1.70977 0.80059,-2.56127 1.36854,-2.64641 0.54109,-3.36542 -5.243,-4.55601 -1.92224,-0.39566 -2.89175,-2.35179 -1.9956,-4.02629 1.22225,-2.28373 -0.15058,-2.79428 -7.93563,-2.95124 -4.7904,-0.0966 -7.44957,-0.38404 -8.49904,-0.91871 -0.84005,-0.42797 -2.73392,-1.40302 -4.20865,-2.16678 -1.47472,-0.76376 -4.49121,-2.1319 -6.7033,-3.04032 -7.35668,-3.021089 -9.48581,-5.046209 -7.58234,-7.211943 0.7933,-0.902671 1.41424,-0.964594 6.36749,-0.635022 4.8275,0.321211 5.90561,0.224255 8.95309,-0.805114 3.01214,-1.017465 3.87177,-1.098591 6.58205,-0.621187 4.23594,0.746152 5.8036,0.335085 8.18891,-2.147259 l 2.03276,-2.115497 4.21911,0.351403 c 2.95905,0.246456 5.09917,0.120933 7.16572,-0.42027 2.10746,-0.551917 3.37728,-0.621551 4.45887,-0.244504 3.34173,1.164926 8.14907,-1.094413 9.82103,-4.615645 0.71934,-1.51487 0.712,-1.904798 -0.0708,-3.771184 -1.02893,-2.453354 -4.16505,-5.576281 -6.08327,-6.057723 -0.74514,-0.187027 -2.21439,-0.11062 -3.26499,0.169792 -1.05054,0.280407 -2.48429,0.374291 -3.18605,0.208623 -0.70181,-0.165673 -3.29561,-2.347661 -5.76408,-4.848866 -4.43743,-4.496358 -4.48805,-4.578293 -4.48805,-7.264203 0,-2.268327 -0.24336,-2.946389 -1.47473,-4.109492 -1.4677,-1.386307 -4.44873,-3.088558 -7.21762,-4.121461 -0.87095,-0.324885 -1.90347,-1.425288 -2.57793,-2.747403 -0.65966,-1.293035 -1.75165,-2.468868 -2.63944,-2.842161 -0.83287,-0.350191 -2.49722,-1.880243 -3.69861,-3.400117 -1.20139,-1.519874 -2.43673,-2.919372 -2.74519,-3.109998 -1.37058,-0.847072 -0.44858,-2.415847 2.50596,-4.263936 1.68671,-1.055045 3.33857,-1.918259 3.67073,-1.918259 0.81721,0 2.16774,-1.600254 2.63043,-3.116733 0.25386,-0.83219 -0.0517,-2.154521 -0.92935,-4.021979 -0.71918,-1.530191 -2.06891,-4.650389 -2.99943,-6.933763 -1.5231,-3.737609 -1.63743,-4.394345 -1.14626,-6.585959 0.64083,-2.859385 0.321,-4.526319 -1.46068,-7.61308 -0.84553,-1.46488 -1.18128,-2.655815 -0.95224,-3.377562 0.61863,-1.949153 -1.69749,-8.352518 -3.77123,-10.426256 -1.69743,-1.697436 -2.57422,-4.48062 -1.46035,-4.635579 0.22121,-0.03077 1.3205,-0.11305 2.44279,-0.182834 4.07754,-0.253529 4.88129,-3.403356 2.29896,-9.009228 l -1.41922,-3.080986 1.08711,-2.386299 c 1.32238,-2.902801 1.35343,-3.995257 0.18335,-6.448927 -0.84745,-1.777119 -0.84745,-2.013118 0,-3.790238 1.19791,-2.512063 1.14262,-4.69389 -0.14865,-5.862436 -0.57879,-0.523796 -1.32543,-1.828118 -1.65931,-2.898501 -0.33382,-1.070377 -1.40324,-3.273397 -2.3765,-4.895596 -0.97327,-1.622198 -2.01748,-3.855994 -2.32047,-4.963996 -0.30294,-1.108001 -1.31106,-2.974435 -2.24024,-4.147636 -1.95334,-2.466283 -2.01555,-4.467738 -0.1471,-4.733258 1.16155,-0.165062 6.57674,2.482247 6.57787,3.215685 2.6e-4,0.200316 1.1468,1.157616 2.54779,2.127348 2.29301,1.587153 2.93229,1.764903 6.40481,1.780846 3.57516,0.01642 3.98734,0.140571 5.63077,1.696224 2.22528,2.106455 3.71899,2.879732 5.56256,2.879732 0.96104,0 2.04611,0.635601 3.23249,1.893531 0.98222,1.041446 2.77254,2.241659 3.97849,2.667146 1.20595,0.425488 3.58299,1.865925 5.28225,3.200975 2.82938,2.222889 3.34291,2.427361 6.09598,2.427361 1.65341,0 3.38506,0.145349 3.84796,0.322997 0.46296,0.177649 1.59002,1.80655 2.50467,3.619781 0.9146,1.813232 2.40708,4.039842 3.31664,4.948027 0.90955,0.908189 2.2767,2.82981 3.0382,4.27028 1.32216,2.501247 4.22672,5.071887 5.73068,5.071887 1.45027,0 4.48096,-3.309258 5.07879,-5.545693 0.74369,-2.781852 1.37664,-3.570793 2.86499,-3.570793 1.1527,0 4.59776,3.041651 4.59776,4.059389 0,0.287443 0.74155,1.422214 1.64784,2.521727 1.39825,1.69631 1.97071,1.999106 3.77948,1.999106 2.31006,0 3.35915,0.841714 6.52268,5.233297 1.13886,1.580949 2.24035,2.444098 3.57897,2.804553 1.17807,0.317221 3.10926,1.677599 4.94167,3.480996 3.01193,2.964279 4.36155,3.484219 6.32143,2.435335 1.95232,-1.044867 2.22764,-3.410815 1.08293,-9.306506 -0.58222,-2.998637 -1.05928,-6.714109 -1.06019,-8.256602 -8.6e-4,-1.542494 -0.38885,-3.772306 -0.8621,-4.955132 -0.82499,-2.061854 -0.81153,-2.23363 0.32669,-4.162743 1.58574,-2.687663 1.16418,-6.311332 -1.30617,-11.22744 -1.01247,-2.01484 -2.00209,-4.788177 -2.19923,-6.16297 -0.32411,-2.260556 -0.23788,-2.563142 0.90195,-3.163795 1.58841,-0.837071 2.04617,-1.523167 2.05652,-3.082316 0.008,-1.214252 -2.48709,-4.857645 -4.49336,-6.561183 -0.82418,-0.699814 -1.09537,-1.967858 -1.43746,-6.720685 -0.23188,-3.221964 -0.80032,-7.177636 -1.26327,-8.790376 -1.41713,-4.93705 -0.89395,-8.59741 1.22879,-8.59741 1.12723,0 3.01965,1.91995 3.51913,3.57031 0.19263,0.63643 1.42153,2.14467 2.73098,3.35165 2.1206,1.95472 2.67193,2.19452 5.04565,2.19452 1.81273,0 3.47129,0.42874 5.18637,1.34066 1.38678,0.73736 3.05563,1.34066 3.70848,1.34066 0.6529,0 2.09802,0.72395 3.21147,1.60879 1.11344,0.884836 2.55712,1.608792 3.20819,1.608792 1.42175,0 2.95884,-1.561155 2.95884,-3.005132 0,-0.57407 0.72396,-4.00847 1.60879,-7.63201 0.88484,-3.62353 1.60879,-7.30534 1.60879,-8.18178 0,-1.84976 1.32935,-5.31295 2.03936,-5.31295 1.08808,0 3.32328,-2.69994 3.32328,-4.0142 0,-0.76125 0.6033,-2.57464 1.34066,-4.02976 0.73736,-1.45511 1.34066,-3.24127 1.34066,-3.96924 0,-2.07687 0.92559,-4.00095 2.70765,-5.62862 1.32176,-1.20724 1.72969,-2.12896 2.099201,-4.74312 0.25225,-1.78459 0.69007,-3.69199 0.97294,-4.23867 0.28287,-0.54669 0.67895,-2.56255 0.88018,-4.47969 0.2774,-2.64282 0.75954,-4.04123 1.99381,-5.78298 0.89537,-1.26351 2.03054,-3.43537 2.5226,-4.82638 1.10405,-3.12102 3.0649,-6.34507 4.10082,-6.74258 1.08562,-0.4166 1.51807,0.46677 2.21641,4.52744 0.35796,2.08138 1.1878,4.40864 2.02088,5.66752 2.97761,4.49947 6.37482,13.70513 7.0482,19.09903 0.21228,1.70044 0.74349,2.95835 1.58522,3.75385 1.33484,1.26152 2.23268,4.67578 2.93514,11.16164 0.45497,4.20082 0.58665,4.44907 3.25275,6.1321 l 2.06981,1.30661 -0.29193,3.6321 c -0.27401,3.40917 -0.19047,3.78021 1.36107,6.04528 1.95652,2.8563 2.0547,4.11995 0.54937,7.07063 -1.36063,2.66707 -0.87934,4.218733 1.72653,5.566284 3.02945,1.566588 8.16012,-0.0088 13.36884,-4.104904 1.13008,-0.88869 1.62927,-0.97882 2.8503,-0.51459 2.79769,1.06368 3.97809,0.71047 5.73569,-1.71632 2.16805,-2.99349 6.3311,-7.37362 7.00819,-7.37362 2.94602,0 3.49183,3.56852 1.02131,6.67728 -3.38492,4.259364 -4.15242,8.116544 -2.94972,14.82432 0.32247,1.798516 0.16236,2.101543 -2.38462,4.51302 -2.20245,2.085283 -2.73029,2.925072 -2.73029,4.343861 0,1.390387 0.30892,1.906423 1.47472,2.463435 0.8111,0.387536 1.54964,1.228543 1.6412,1.868895 0.0916,0.640353 -0.94411,3.493797 -2.30151,6.340983 -3.18546,6.681638 -3.43202,7.938126 -1.95085,9.941522 2.46018,3.327571 2.47459,4.114259 0.16138,8.811797 -4.82014,9.788478 -4.92385,10.073824 -4.92385,13.548202 0,2.915785 0.19389,3.552485 1.54085,5.059993 2.06331,2.30925 4.4323,2.338573 7.33956,0.09086 1.16215,-0.898504 3.11033,-1.91326 4.32929,-2.255011 1.62753,-0.456301 2.88055,-1.398887 4.71679,-3.548232 1.97211,-2.308391 3.17302,-3.172082 5.68309,-4.087302 1.75042,-0.638234 3.73029,-1.731403 4.39969,-2.429254 5.36125,-5.58907 6.36415,-6.029659 8.27868,-3.637 0.68486,0.855882 1.24729,2.038789 1.24986,2.62868 0.003,0.58989 0.49191,1.871695 1.08743,2.848451 0.9162899,1.502912 1.3475399,1.750231 2.8052099,1.608792 1.48425,-0.14402 1.90903,-0.551478 3.0713,-2.946122 0.77297,-1.592564 2.95144,-4.35746 5.1026601,-6.476271 2.06462,-2.033501 4.26499,-4.307636 4.88971,-5.053632 0.88927,-1.061888 1.83195,-1.435107 4.34212,-1.719101 2.30283,-0.260533 3.79874,-0.798465 5.30899,-1.909121 1.15652,-0.850504 3.3975,-2.038339 4.97997,-2.63963 1.58247,-0.601291 3.33435,-1.583925 3.89306,-2.183635 0.55871,-0.599709 1.67279,-1.224408 2.47573,-1.38822 1.81397,-0.370087 3.22115,-1.145331 5.75944,-3.172993 1.71652,-1.371211 2.55856,-1.620708 6.34744,-1.880769 4.55368,-0.312556 5.39742,-0.692284 9.88375,-4.448196 2.19372,-1.836554 5.24493,-2.003101 6.98572,-0.381305 1.49117,1.38924 1.48089,1.539244 -0.35795,5.222974 -0.84239,1.687521 -1.70082,3.7686 -1.90765,4.624616 -0.20682,0.856017 -1.09002,2.223366 -1.96268,3.038552 -0.87266,0.815185 -1.93217,2.309088 -2.35447,3.319779 -0.42229,1.010696 -1.64191,2.883866 -2.71027,4.162603 -1.39574,1.670596 -1.84856,2.637668 -1.60885,3.435918 0.97936,3.261299 0.92876,5.11792 -0.19121,7.016133 -1.3672,2.317223 -1.41173,3.102238 -0.27446,4.837937 0.90548,1.381946 0.84703,2.540695 -0.33886,6.717107 -0.95263,3.3549 -0.44003,4.8075 2.40384,6.812043 3.01457,2.124871 3.10707,3.307279 0.55533,7.099152 -1.03231,1.534004 -1.91368,3.307815 -1.95861,3.941803 -0.0449,0.633987 -0.13775,1.394023 -0.20627,1.688968 -0.0685,0.294945 -0.15243,1.446598 -0.18645,2.559233 -0.0479,1.566969 -0.54538,2.547538 -2.20692,4.350082 -2.40878,2.613214 -2.4634,2.814843 -1.34396,4.961256 1.51985,2.914192 1.15929,3.846835 -3.63991,9.415109 -2.09226,2.427554 -2.63107,3.445903 -2.63107,4.972727 0,2.342626 1.29376,4.442764 3.17832,5.159266 2.43855,0.927136 6.55,3.835509 6.87654,4.864358 0.48276,1.521032 -0.19006,2.961662 -1.88426,4.034555 -1.89513,1.200137 -7.03342,5.591864 -9.94851,8.503042 -1.19217,1.19057 -3.84989,3.081506 -5.90605,4.202083 -4.86303,2.650286 -5.14574,2.962301 -5.66596,6.253137 -0.52302,3.308641 -1.61221,5.129691 -3.78885,6.334757 -0.88129,0.487914 -2.24818,1.444201 -3.03751,2.125085 -2.38322,2.055762 -4.40299,2.910502 -6.06434,2.566328 -4.96863,-1.029316 -4.76586,-1.045527 -6.39043,0.510915 -2.35675,2.257912 -3.4631101,5.570618 -2.66653,7.984261 0.93171,2.823113 2.79882,3.561966 9.86305,3.903035 4.3039,0.207803 7.44251,0.03535 11.25534,-0.61843 2.90796,-0.498618 5.60004,-0.786533 5.9824,-0.639806 0.38237,0.146728 0.8523,0.982018 1.0443,1.856197 0.49324,2.245702 1.7659,3.112213 4.79793,3.266754 1.44797,0.0738 3.25787,0.381273 4.02198,0.683275 0.7641,0.301997 2.92573,0.531116 4.80362,0.509156 2.02542,-0.02369 4.03246,0.279704 4.93381,0.745814 0.83571,0.432159 2.34083,0.785744 3.34472,0.785744 1.93384,0 4.66318,1.982854 4.66318,3.387784 0,1.94335 -2.10485,3.45468 -5.75446,4.13183 -4.28428,0.79491 -10.65965,3.80851 -12.29362,5.81112 -1.1142,1.36558 -1.34561,1.41444 -6.43516,1.35873 -2.90367,-0.0318 -6.26356,-0.23698 -7.46641,-0.456 -2.94156,-0.53561 -4.21248,0.63803 -3.82436,3.531644 0.35558,2.65107 -0.4806,3.68724 -3.27839,4.06251 -2.79531,0.37492 -3.41922,1.37562 -2.95756,4.743707 0.30827,2.2491 0.20489,2.63477 -0.94279,3.51712 -0.71303,0.54818 -2.18278,0.99635 -3.28916,1.00294 -2.05702,0.0123 -6.31195,-1.40708 -6.31195,-2.10552 0,-0.53843 -4.3715201,-1.93975 -5.3505101,-1.71515 -0.43575,0.1 -1.59041,0.88255 -2.56591,1.73905 -0.97551,0.8565 -1.99936,1.55728 -2.27522,1.55728 -0.27586,0 -1.8963699,-0.70509 -3.6011199,-1.56687 -5.93564,-3.00056 -11.56375,-3.09991 -12.28733,-0.21692 -0.33868,1.3494 -0.006,2.23788 2.05465,5.48231 l 1.15679,1.82159 -1.22729,0.99379 c -1.65975,1.34399 -2.15591,1.2821 -7.08053,-0.88313 -2.34789,-1.0323 -4.51347,-1.87692 -4.81239,-1.87692 -0.29893,0 -1.86387,-0.62463 -3.47765,-1.38808 l -2.93416,-1.38807 -2.64233,0.95017 -2.64233,0.95017 -2.83646,-1.39953 c -3.64835,-1.80011 -8.10923,-2.25759 -14.53392,-1.49049 -6.08493,0.72653 -10.03531,-0.0207 -16.03921,-3.03384 -3.38143,-1.69702 -3.9418,-1.8131 -8.05318,-1.66818 -4.15199,0.14635 -4.45879,0.23932 -5.0803,1.53933 -0.72949,1.52588 -1.59072,9.4791 -2.31816,21.40765 -0.44789,7.34433 -0.46228,11.85988 -2.92026,22.52308 -1.90281,8.25474 -4.257121,17.67053 -5.852171,20.70279 -0.86655,1.64729 -1.57555,3.33261 -1.57555,3.74505 0,0.82874 -1.78801,0.9427 -3.48571,0.22217 z"
       id="path2960"
       style="fill:#cc0000;fill-opacity:1"
       inkscape:connector-curvature="0" />
    <path
       d="m -6.243988,-101.63116 c -25.368208,19.041344 -42.643461,44.419005 -58.956072,79.054104 h -80.94339 -4.65443 v 4.17792 102.576667 4.177919 h 4.65443 114.275873 4.654426 v -4.177919 -94.699544 c 8.208985,-9.34234 16.000978,-16.102731 22.932748,-19.257604 -6.507088,-27.160229 -4.566422,-39.142449 -1.963585,-71.851543 z m -135.245022,87.409945 h 31.56282 c -10.67531,8.690049 -19.8705,15.744858 -31.56282,25.568007 z m 33.18702,0 h 39.247483 C -75.682373,0.549192 -82.222244,16.897083 -89.199448,35.043438 -94.459877,15.044865 -107.05119,-11.588594 -108.30199,-14.221214 Z M -36.522004,0.9237491 V 79.999604 H -84.205635 C -69.209351,50.352245 -52.394585,21.772758 -36.522004,0.9237491 Z M -141.48901,21.682795 c 12.98057,8.725198 31.30625,27.113733 52.459249,58.31681 h -52.459249 z"
       id="rect2415"
       style="color:#000000;font-style:normal;font-variant:normal;font-weight:normal;font-stretch:normal;font-size:medium;line-height:normal;font-family:'Bitstream Vera Sans';-inkscape-font-specification:'Bitstream Vera Sans';text-indent:0;text-align:start;text-decoration:none;text-decoration-line:none;letter-spacing:normal;word-spacing:normal;text-transform:none;writing-mode:lr-tb;direction:ltr;text-anchor:start;display:inline;overflow:visible;visibility:visible;fill:#ffffff;fill-opacity:1;stroke:none;stroke-width:12;marker:none;enable-background:accumulate"
       inkscape:connector-curvature="0" />
  </g>
  <text
     style="font-size:75px;font-family:Optima-Bold;text-anchor:middle;fill:#cc0000;stroke:#cc0000;stroke-width:1px;text-rendering:geometricPrecision"
     id="text1"
     x="497.59537"
     font-size="75px"
     y="212.9705">2004-2019</text>
</svg>
